<svg width="24" height="24" viewBox="0 0 24 24" fill="none" xmlns="http://www.w3.org/2000/svg">
<path d="M12.0001 22.6875C11.8565 22.6875 11.7182 22.6326 11.6138 22.534L4.86377 16.159C4.80811 16.1064 4.76376 16.043 4.73345 15.9727C4.70314 15.9023 4.6875 15.8266 4.6875 15.75V9.375C4.68751 9.22582 4.74677 9.08274 4.85226 8.97726C4.95775 8.87177 5.10082 8.8125 5.25 8.8125H10.5852L4.86377 3.40897C4.7819 3.33164 4.72512 3.23151 4.70079 3.12155C4.67645 3.01159 4.68569 2.89685 4.7273 2.7922C4.7689 2.68754 4.84097 2.59779 4.93416 2.53455C5.02735 2.47131 5.13738 2.4375 5.25 2.4375H18.75C18.8992 2.4375 19.0423 2.49677 19.1477 2.60226C19.2532 2.70774 19.3125 2.85082 19.3125 3V9.375C19.3125 9.52418 19.2532 9.66726 19.1477 9.77274C19.0423 9.87823 18.8992 9.9375 18.75 9.9375H13.4148L19.1362 15.341C19.2181 15.4184 19.2749 15.5185 19.2992 15.6285C19.3235 15.7384 19.3143 15.8531 19.2727 15.9578C19.2311 16.0625 19.159 16.1522 19.0658 16.2155C18.9727 16.2787 18.8626 16.3125 18.75 16.3125H12.5625V22.125C12.5625 22.2742 12.5032 22.4172 12.3978 22.5227C12.2923 22.6282 12.1493 22.6875 12.0001 22.6875ZM5.8125 15.5075L11.4375 20.8201V15.75C11.4375 15.6008 11.4968 15.4577 11.6023 15.3523C11.7077 15.2468 11.8508 15.1875 12 15.1875H17.3352L11.7764 9.9375H5.8125V15.5075ZM12.2236 8.8125H18.1875V3.5625H6.66481L12.2236 8.8125Z" fill="black"/>
<path d="M12.0001 22.6875C11.8565 22.6875 11.7182 22.6326 11.6138 22.534L4.86377 16.159C4.80811 16.1064 4.76376 16.043 4.73345 15.9727C4.70314 15.9023 4.6875 15.8266 4.6875 15.75V9.375C4.68751 9.22582 4.74677 9.08274 4.85226 8.97726C4.95775 8.87177 5.10082 8.8125 5.25 8.8125H10.5852L4.86377 3.40897C4.7819 3.33164 4.72512 3.23151 4.70079 3.12155C4.67645 3.01159 4.68569 2.89685 4.7273 2.7922C4.7689 2.68754 4.84097 2.59779 4.93416 2.53455C5.02735 2.47131 5.13738 2.4375 5.25 2.4375H18.75C18.8992 2.4375 19.0423 2.49677 19.1477 2.60226C19.2532 2.70774 19.3125 2.85082 19.3125 3V9.375C19.3125 9.52418 19.2532 9.66726 19.1477 9.77274C19.0423 9.87823 18.8992 9.9375 18.75 9.9375H13.4148L19.1362 15.341C19.2181 15.4184 19.2749 15.5185 19.2992 15.6285C19.3235 15.7384 19.3143 15.8531 19.2727 15.9578C19.2311 16.0625 19.159 16.1522 19.0658 16.2155C18.9727 16.2787 18.8626 16.3125 18.75 16.3125H12.5625V22.125C12.5625 22.2742 12.5032 22.4172 12.3978 22.5227C12.2923 22.6282 12.1493 22.6875 12.0001 22.6875ZM5.8125 15.5075L11.4375 20.8201V15.75C11.4375 15.6008 11.4968 15.4577 11.6023 15.3523C11.7077 15.2468 11.8508 15.1875 12 15.1875H17.3352L11.7764 9.9375H5.8125V15.5075ZM12.2236 8.8125H18.1875V3.5625H6.66481L12.2236 8.8125Z" stroke="black"/>
</svg>
