<svg width="24" height="24" viewBox="0 0 24 24" fill="none" xmlns="http://www.w3.org/2000/svg">
<path d="M22.4949 2.17054C22.506 2.0035 22.5018 1.83579 22.4821 1.66954C22.4666 1.6231 22.436 1.58322 22.3951 1.55629C22.3618 1.52922 22.3228 1.50999 22.2811 1.50004C22.2571 1.49554 22.2234 1.52029 22.1911 1.55554C22.1599 1.589 22.1334 1.62661 22.1124 1.66729C22.0934 1.73921 22.0893 1.81424 22.1004 1.88779V5.24179C21.1086 5.31218 20.1169 5.10439 19.2369 4.64179C18.9491 4.51174 18.7204 4.27887 18.5955 3.98888C18.4706 3.69888 18.4586 3.37268 18.5619 3.07429C18.6736 2.65204 18.7974 2.23354 18.9249 1.81579C18.9549 1.71604 18.9721 1.61329 18.9249 1.55479C18.8986 1.52631 18.8623 1.50911 18.8236 1.50679C18.7741 1.50732 18.7261 1.5242 18.6871 1.55479C18.631 1.58834 18.5863 1.63799 18.5589 1.69729C18.4089 2.14729 18.2769 2.60179 18.1621 3.06079C18.1188 3.24167 18.1071 3.42868 18.1276 3.61354C18.1566 3.94802 18.281 4.26715 18.486 4.53303C18.691 4.79892 18.968 5.0004 19.2841 5.11354C19.4259 5.17279 19.5091 5.23129 19.4694 5.41804C19.4146 5.65504 19.3614 5.89204 19.3074 6.12979C18.9399 7.74079 18.5744 9.35254 18.2109 10.965C18.2006 11.0369 18.169 11.1041 18.1201 11.1578C17.8805 11.3482 17.6792 11.5824 17.5269 11.8478C17.3327 12.1981 17.1984 12.5783 17.1294 12.9728C17.1161 13.0986 17.0706 13.2189 16.9973 13.3221C16.924 13.4252 16.8254 13.5077 16.7109 13.5615C16.3981 13.7198 16.1109 13.9245 15.7636 14.1375C15.7868 13.7199 15.7822 13.3013 15.7501 12.8843C15.7237 12.756 15.7293 12.6232 15.7664 12.4976C15.8036 12.372 15.8711 12.2575 15.9631 12.1643C16.4205 11.7111 16.7466 11.1425 16.9066 10.5188C16.9544 10.3742 16.9675 10.2204 16.9449 10.0698C16.9222 9.91927 16.8645 9.77614 16.7763 9.65201C16.6881 9.52789 16.5719 9.42626 16.4371 9.35535C16.3024 9.28443 16.1529 9.24621 16.0006 9.24379C15.7541 9.24104 15.5121 9.30982 15.3039 9.44179C14.5861 9.92629 13.8879 10.4408 13.1949 10.9613C12.7846 11.2703 12.3984 11.6123 12.0009 11.9363C11.9837 11.9179 11.9689 11.8975 11.9566 11.8755C11.949 11.8203 11.9341 11.7664 11.9124 11.715C11.5801 11.202 11.8104 10.8293 12.1711 10.446C12.5469 10.0521 12.7546 9.52725 12.7501 8.98279C12.7618 8.70538 12.6749 8.4328 12.5049 8.21329C12.4143 8.10186 12.3027 8.00936 12.1764 7.94104C11.997 7.84285 11.7918 7.80186 11.5885 7.82358C11.3851 7.8453 11.1932 7.92868 11.0386 8.06254L10.8294 8.21254C10.3516 8.55454 9.86786 8.88754 9.40811 9.25354C8.73686 9.78754 8.08136 10.344 7.43861 10.914C7.13861 11.1788 6.91961 11.5403 6.60836 11.7863C4.98536 13.068 3.34511 14.3265 1.71086 15.5933C1.65466 15.6268 1.60299 15.6674 1.55711 15.714C1.55238 15.7209 1.54836 15.7282 1.54511 15.7358C1.51061 15.816 1.48136 15.9488 1.52186 15.9975C1.53179 16.0081 1.54378 16.0165 1.55711 16.0223C1.62855 16.0519 1.70806 16.0559 1.78211 16.0335C1.88022 15.9826 1.9702 15.9174 2.04911 15.84L6.62411 12.294C6.70586 12.2303 6.79211 12.1725 6.89186 12.1005C6.91868 12.3994 7.02948 12.6846 7.21147 12.9232C7.39347 13.1617 7.63923 13.344 7.92038 13.4488C8.20153 13.5537 8.50661 13.5769 8.80038 13.5157C9.09415 13.4546 9.36464 13.3116 9.58061 13.1033C10.1056 12.5978 10.6479 12.1073 11.1826 11.61L11.3776 11.427C11.7046 12.0668 11.6716 12.2355 11.1691 12.6383C8.08111 15.1093 4.99536 17.5808 1.91186 20.0528C1.78061 20.1578 1.52111 20.253 1.69136 20.4765C1.86161 20.7 2.01836 20.4698 2.14886 20.3655C5.04186 18.055 7.93286 15.7415 10.8219 13.425C10.8969 13.365 10.9756 13.3118 11.0844 13.2323C11.0844 13.3485 11.0844 13.4115 11.0844 13.4753C11.0697 13.7561 11.1388 14.0349 11.2831 14.2762C11.4273 14.5175 11.6401 14.7105 11.8944 14.8305C12.1436 14.9571 12.4265 15.0015 12.7025 14.9571C12.9785 14.9128 13.2333 14.7821 13.4304 14.5838C14.0251 14.0588 14.6139 13.5233 15.2056 12.9938C15.2431 12.96 15.2866 12.9345 15.3556 12.882C15.4403 13.3975 15.4237 13.9246 15.3069 14.4338C15.278 14.5015 15.2307 14.5597 15.1704 14.6018C14.6814 15.0243 14.1906 15.445 13.6981 15.864L6.47411 21.996C6.38953 22.0525 6.31479 22.1224 6.25286 22.203C6.23309 22.2398 6.22201 22.2806 6.22045 22.3224C6.21889 22.3641 6.2269 22.4056 6.24386 22.4438C6.27775 22.4692 6.31692 22.4866 6.35847 22.4948C6.40002 22.503 6.44287 22.5017 6.48386 22.491C6.5162 22.4816 6.54596 22.465 6.57086 22.4423C6.60836 22.4123 6.64586 22.374 6.67961 22.3433L11.9019 17.9183C12.1531 17.7053 12.4066 17.4953 12.6714 17.2733C12.6848 17.309 12.6955 17.3456 12.7036 17.3828C12.7186 17.6723 12.8183 17.951 12.9903 18.1843C13.1623 18.4177 13.399 18.5953 13.6711 18.6953C13.9399 18.8121 14.2378 18.8445 14.5254 18.7884C14.8131 18.7323 15.0769 18.5903 15.2821 18.381C15.6301 18.0638 15.9736 17.7413 16.3186 17.4203C16.5436 17.214 16.7611 17.007 16.9981 16.7843C17.0423 16.9382 17.0781 17.0945 17.1054 17.2523C17.1398 17.6196 17.0892 17.99 16.9573 18.3345C16.8254 18.6791 16.6158 18.9886 16.3449 19.239C15.4756 20.175 14.5869 21.0908 13.7056 22.014C13.6479 22.074 13.5684 22.1235 13.5369 22.1948C13.5054 22.266 13.4851 22.4055 13.5226 22.4355L13.5331 22.4423C13.6117 22.4805 13.7002 22.4939 13.7866 22.4805C13.8108 22.4756 13.8324 22.462 13.8474 22.4423C13.8684 22.4205 13.8886 22.3935 13.9089 22.3733C14.6229 21.6353 15.3406 20.901 16.0494 20.1578C16.3354 19.8679 16.6044 19.5617 16.8549 19.2405C17.1815 18.879 17.398 18.4317 17.4791 17.9512C17.5601 17.4708 17.5023 16.9772 17.3124 16.5285C17.2919 16.4285 17.3119 16.3244 17.3679 16.239C17.4166 16.155 17.4706 16.0733 17.5261 15.9923C17.7037 15.7617 17.8516 15.5097 17.9664 15.2423C18.1881 14.5859 18.5285 13.9758 18.9706 13.4423C19.1739 13.1846 19.3137 12.8828 19.3788 12.5611C19.444 12.2395 19.4326 11.907 19.3456 11.5905C19.3149 11.4702 19.3149 11.3441 19.3456 11.2238C19.7251 10.0485 20.1159 8.87704 20.5029 7.70479C20.6764 7.17979 20.8489 6.65629 21.0204 6.13429L21.1801 5.64904C21.5206 5.64904 21.8416 5.64229 22.1611 5.64904C22.4266 5.65654 22.5076 5.53204 22.5046 5.27404C22.4889 4.23904 22.4949 3.20479 22.4949 2.17054ZM9.19211 12.9C9.02442 13.0553 8.81189 13.1534 8.58499 13.1803C8.35809 13.2073 8.12848 13.1617 7.92911 13.05C7.73066 12.9653 7.56334 12.8211 7.45013 12.6374C7.33692 12.4537 7.28338 12.2394 7.29686 12.024C7.32088 11.7595 7.4307 11.5101 7.60961 11.3138C8.77236 10.2051 10.0321 9.20281 11.3739 8.31904C11.4471 8.26727 11.5304 8.23149 11.6184 8.21404C11.6774 8.20316 11.7379 8.20316 11.7969 8.21404C11.8675 8.2278 11.9349 8.25477 11.9956 8.29354C12.1183 8.36968 12.2174 8.47833 12.282 8.60742C12.3466 8.73651 12.3742 8.88098 12.3616 9.02479C12.3461 9.39924 12.2151 9.75971 11.9866 10.0568C11.1698 11.1108 10.2319 12.0651 9.19211 12.9ZM13.0921 14.3468C12.9617 14.4809 12.7904 14.5678 12.6052 14.5939C12.4201 14.6199 12.2314 14.5837 12.0691 14.4908C11.8982 14.402 11.7528 14.2711 11.6465 14.1104C11.5402 13.9498 11.4766 13.7648 11.4616 13.5728C11.4442 13.407 11.4655 13.2394 11.5238 13.0833C11.5821 12.9271 11.6758 12.7866 11.7976 12.6728C12.9361 11.6227 14.1576 10.6664 15.4501 9.81304C15.4891 9.78829 15.5251 9.76354 15.5679 9.73804C15.6808 9.65653 15.8176 9.61488 15.9567 9.61963C16.0959 9.62438 16.2295 9.67527 16.3366 9.76429C16.4402 9.85205 16.5135 9.97025 16.5461 10.1021C16.5787 10.2339 16.5689 10.3726 16.5181 10.4985C16.3546 11.0432 16.0528 11.5362 15.6421 11.9295C14.8149 12.756 13.9546 13.5518 13.0936 14.3438L13.0921 14.3468ZM17.5254 15.2775C17.0471 16.0811 16.4484 16.8066 15.7501 17.4285C15.4841 17.685 15.2079 17.9303 14.9214 18.1643C14.7696 18.2902 14.5872 18.3735 14.3927 18.4058C14.1982 18.4381 13.9986 18.4181 13.8144 18.3479C13.6301 18.2777 13.4678 18.1598 13.3441 18.0063C13.2203 17.8528 13.1396 17.6692 13.1101 17.4743C13.0981 17.3659 13.1077 17.2562 13.1383 17.1515C13.1689 17.0469 13.22 16.9493 13.2886 16.8645C14.3092 15.7562 15.4756 14.7917 16.7559 13.9973C16.7714 13.9913 16.7879 13.988 16.8046 13.9875L16.8796 14.0625C16.6696 14.2875 16.4536 14.502 16.2519 14.7323C16.1912 14.8213 16.1409 14.9169 16.1019 15.0173C16.2129 15.0503 16.3426 15.1373 16.4326 15.1065C16.7949 14.985 17.1511 14.844 17.5329 14.694L17.8411 14.574C17.7256 14.829 17.6431 15.0615 17.5269 15.2745L17.5254 15.2775ZM18.5551 13.3763C18.2753 13.7324 17.9247 14.0267 17.5254 14.2403C17.4019 14.3093 17.2751 14.3738 17.1451 14.4338C17.2786 13.923 17.4121 13.4498 17.5254 12.9713L17.5299 12.9518C17.641 12.4819 17.8523 12.0416 18.1494 11.661C18.3316 11.4218 18.5364 11.517 18.7456 11.5688C18.9391 11.616 18.9879 11.7578 18.9961 11.9438C19.0269 12.4577 18.8708 12.9654 18.5566 13.3733L18.5551 13.3763ZM20.3101 7.00129C19.8766 8.31379 19.4379 9.62629 19.0149 10.9403C18.9354 11.187 18.8274 11.232 18.5941 11.0835L19.7064 6.13879L19.8774 5.37979L20.7774 5.59054C20.7159 5.77579 20.6566 5.95804 20.5966 6.13879L20.3101 7.00129Z" fill="black" stroke="black" stroke-width="0.3"/>
</svg>
